<svg version="1.1" xmlns="http://www.w3.org/2000/svg" xmlns:xlink="http://www.w3.org/1999/xlink" width="245.64615" height="170.47949" viewBox="0,0,245.64615,170.47949"><g transform="translate(-84.86025,-169.49359)"><g stroke-miterlimit="10"><path d="M85.61026,339.22308v-168.97949h244.14615v168.97949z" fill="#000000" stroke="#737373" stroke-width="1.5" stroke-linecap="butt"/><g fill="none" stroke="#737373" stroke-width="1.5" stroke-linecap="round"><g><path d="M312.42309,180h15.15385"/><path d="M320.00001,187.57693v-15.15385"/></g><g><path d="M314.6423,185.3577l10.71539,-10.71539"/><path d="M325.35769,185.3577l-10.71539,-10.71539"/></g></g><g fill="none" stroke="#737373" stroke-width="1.5" stroke-linecap="round"><g><path d="M327.06194,177.25433l-14.1239,5.49133"/><path d="M317.25433,172.93805l5.49133,14.1239"/></g><g><path d="M323.05207,173.06497l-6.10415,13.87006"/><path d="M313.06497,176.94792l13.87006,6.10415"/></g></g><path d="M314.92309,180c0,-2.80391 2.27302,-5.07692 5.07692,-5.07692c2.80391,0 5.07692,2.27302 5.07692,5.07692c0,2.80391 -2.27302,5.07692 -5.07692,5.07692c-2.80391,0 -5.07692,-2.27302 -5.07692,-5.07692z" fill="#000000" stroke="#737373" stroke-width="2.5" stroke-linecap="butt"/><text transform="translate(89.6,183.86712) scale(0.2899,0.2899)" font-size="40" xml:space="preserve" fill="#ffffff" stroke="none" stroke-width="1" stroke-linecap="butt" font-family="Sans Serif" font-weight="normal" text-anchor="start"><tspan x="0" dy="0">Select a point by clicking your mouse</tspan><tspan x="0" dy="48px">Use ENG keyboard layout</tspan></text><text transform="translate(90.06845,246.39222) scale(0.42851,0.42851)" font-size="40" xml:space="preserve" fill="#ffffff" stroke="none" stroke-width="1" stroke-linecap="butt" font-family="Sans Serif" font-weight="normal" text-anchor="start"><tspan x="0" dy="0">Q / A - brightness</tspan></text><text transform="translate(89.6,266.21132) scale(0.42851,0.42851)" font-size="40" xml:space="preserve" fill="#ffffff" stroke="none" stroke-width="1" stroke-linecap="butt" font-family="Sans Serif" font-weight="normal" text-anchor="start"><tspan x="0" dy="0">R / F - color</tspan></text><text transform="translate(89.6,286.02149) scale(0.42851,0.42851)" font-size="40" xml:space="preserve" fill="#ffffff" stroke="none" stroke-width="1" stroke-linecap="butt" font-family="Sans Serif" font-weight="normal" text-anchor="start"><tspan x="0" dy="0">E / D - contrast</tspan></text><path d="M294.27693,203.33761h-204.66667" fill="none" stroke="#ffffff" stroke-width="1" stroke-linecap="round"/><text transform="translate(90.73512,226.72556) scale(0.42851,0.42851)" font-size="40" xml:space="preserve" fill="#ffffff" stroke="none" stroke-width="1" stroke-linecap="butt" font-family="Sans Serif" font-weight="normal" text-anchor="start"><tspan x="0" dy="0">W / S - in / out</tspan></text><text transform="translate(89.26666,313.35482) scale(0.42851,0.42851)" font-size="40" xml:space="preserve" fill="#ffffff" stroke="none" stroke-width="1" stroke-linecap="butt" font-family="Sans Serif" font-weight="normal" text-anchor="start"><tspan x="0" dy="0">X - low quality (faster)</tspan></text><text transform="translate(88.6,331.02149) scale(0.42851,0.42851)" font-size="40" xml:space="preserve" fill="#ffffff" stroke="none" stroke-width="1" stroke-linecap="butt" font-family="Sans Serif" font-weight="normal" text-anchor="start"><tspan x="0" dy="0">Z - final render (slower)</tspan></text></g></g></svg>