<svg version="1.1" xmlns="http://www.w3.org/2000/svg" xmlns:xlink="http://www.w3.org/1999/xlink" width="21.01282" height="21.01282" viewBox="0,0,21.01282,21.01282"><g transform="translate(-229.49359,-169.49359)"><g stroke-miterlimit="10"><path d="M230.24359,189.75641v-19.51282h19.51282v19.51282z" fill="#000000" stroke="#737373" stroke-width="1.5" stroke-linecap="butt"/><g fill="none" stroke-width="1.5" stroke-linecap="round"><g><path d="M232.42308,180h15.15385" stroke="#737373"/><path d="M240,187.57693v-15.15385" stroke="#737373"/></g><g stroke="#737373"><path d="M234.6423,185.3577l10.71539,-10.71539"/><path d="M245.3577,185.3577l-10.71539,-10.71539"/></g></g><g fill="none" stroke="#737373" stroke-width="1.5" stroke-linecap="round"><g><path d="M232.93805,182.74566l14.1239,-5.49133"/><path d="M242.74566,187.06195l-5.49133,-14.1239"/></g><g><path d="M236.94793,186.93503l6.10415,-13.87006"/><path d="M246.93503,183.05207l-13.87006,-6.10415"/></g></g><path d="M234.92308,180c0,-2.80391 2.27302,-5.07692 5.07692,-5.07692c2.80391,0 5.07692,2.27302 5.07692,5.07692c0,2.80391 -2.27302,5.07692 -5.07692,5.07692c-2.80391,0 -5.07692,-2.27302 -5.07692,-5.07692z" fill="#000000" stroke="#737373" stroke-width="2.5" stroke-linecap="butt"/></g></g></svg>